<svg xmlns="http://www.w3.org/2000/svg" xmlns:xlink="http://www.w3.org/1999/xlink" width="500" zoomAndPan="magnify" viewBox="0 0 375 374.999991" height="500" preserveAspectRatio="xMidYMid meet" version="1.0"><defs><filter x="0%" y="0%" width="100%" height="100%" id="85cdc6d7f5"><feColorMatrix values="0 0 0 0 1 0 0 0 0 1 0 0 0 0 1 0 0 0 1 0" color-interpolation-filters="sRGB"/></filter><g/><clipPath id="c4a991b2f7"><path d="M 122.246094 191.882812 L 141.355469 191.882812 L 141.355469 210.992188 L 122.246094 210.992188 Z M 122.246094 191.882812 " clip-rule="nonzero"/></clipPath><clipPath id="17015b4cd4"><path d="M 131.800781 191.882812 C 126.523438 191.882812 122.246094 196.160156 122.246094 201.4375 C 122.246094 206.714844 126.523438 210.992188 131.800781 210.992188 C 137.078125 210.992188 141.355469 206.714844 141.355469 201.4375 C 141.355469 196.160156 137.078125 191.882812 131.800781 191.882812 Z M 131.800781 191.882812 " clip-rule="nonzero"/></clipPath><clipPath id="185e81aa9a"><path d="M 111.339844 205.539062 L 122.246094 205.539062 L 122.246094 216.449219 L 111.339844 216.449219 Z M 111.339844 205.539062 " clip-rule="nonzero"/></clipPath><clipPath id="b95ef1bb11"><path d="M 116.792969 205.539062 C 113.78125 205.539062 111.339844 207.980469 111.339844 210.992188 C 111.339844 214.007812 113.78125 216.449219 116.792969 216.449219 C 119.804688 216.449219 122.246094 214.007812 122.246094 210.992188 C 122.246094 207.980469 119.804688 205.539062 116.792969 205.539062 Z M 116.792969 205.539062 " clip-rule="nonzero"/></clipPath><mask id="58eb1c54ef"><g filter="url(#85cdc6d7f5)"><rect x="-37.5" width="450" fill="#000000" y="-37.499999" height="449.999989" fill-opacity="0.9"/></g></mask><clipPath id="d116a1251c"><path d="M 0.398438 2 L 2.320312 2 L 2.320312 43 L 0.398438 43 Z M 0.398438 2 " clip-rule="nonzero"/></clipPath><clipPath id="68b25b6529"><rect x="0" width="3" y="0" height="44"/></clipPath><mask id="6dc8a9836e"><g filter="url(#85cdc6d7f5)"><rect x="-37.5" width="450" fill="#000000" y="-37.499999" height="449.999989" fill-opacity="0.9"/></g></mask><clipPath id="424b7adbd1"><path d="M 0.640625 2 L 2.320312 2 L 2.320312 29 L 0.640625 29 Z M 0.640625 2 " clip-rule="nonzero"/></clipPath><clipPath id="fe9cc749aa"><rect x="0" width="3" y="0" height="30"/></clipPath></defs><rect x="-37.5" width="450" fill="#ffffff" y="-37.499999" height="449.999989" fill-opacity="1"/><rect x="-37.5" width="450" fill="#ffffff" y="-37.499999" height="449.999989" fill-opacity="1"/><g fill="#0579b2" fill-opacity="0.4"><g transform="translate(110.53301, 185.231797)"><g><path d="M 36.625 -11.953125 C 36.625 -17.9375 33.390625 -21.6875 25.015625 -22.890625 C 30.65625 -24 33.5625 -26.890625 33.5625 -32.453125 C 33.5625 -39.796875 27.328125 -44.3125 16.484375 -44.3125 L 8.203125 -44.3125 C 7.515625 -44.3125 6.921875 -44.3125 6.3125 -44.234375 C 4.703125 -44.140625 3.328125 -43.890625 2.390625 -43.546875 C 1.796875 -43.296875 1.359375 -42.953125 1.109375 -42.609375 C 0.9375 -42.4375 0.859375 -42.265625 0.765625 -42.015625 L 0.765625 -41.421875 C 0.765625 -41.25 0.859375 -40.984375 0.859375 -40.8125 C 0.9375 -40.734375 0.9375 -40.5625 0.9375 -40.46875 C 1.359375 -39.109375 2.3125 -37.3125 2.640625 -35.4375 C 2.640625 -35.265625 2.734375 -35.015625 2.734375 -34.84375 L 2.734375 -9.90625 C 2.734375 -8.109375 1.96875 -6.484375 1.453125 -5.125 L 1.03125 -4.09375 C 1.03125 -3.921875 1.03125 -3.84375 0.9375 -3.75 C 0.859375 -3.5 0.765625 -3.15625 0.765625 -2.90625 L 0.765625 -2.640625 C 0.765625 -2.3125 0.859375 -1.96875 1.109375 -1.625 L 1.359375 -1.359375 C 1.703125 -1.03125 2.21875 -0.859375 2.8125 -0.59375 C 4.09375 -0.171875 5.984375 0 8.203125 0 L 16.484375 0 C 30.65625 0 36.625 -4.609375 36.625 -11.953125 Z M 24.59375 -12.546875 C 24.59375 -8.109375 22.71875 -5.203125 17.078125 -5.203125 C 14.765625 -5.203125 14.515625 -6.0625 14.515625 -9.90625 L 14.515625 -17.328125 C 14.609375 -19.046875 15.375 -19.984375 17.328125 -19.984375 C 22.546875 -19.984375 24.59375 -16.90625 24.59375 -12.546875 Z M 17.328125 -24.9375 C 15.375 -24.9375 14.609375 -25.359375 14.515625 -26.984375 L 14.515625 -34.40625 C 14.515625 -38.25 14.765625 -39.109375 17.078125 -39.109375 C 20.328125 -39.109375 21.515625 -36.46875 21.515625 -32.015625 C 21.515625 -27.75 19.890625 -24.9375 17.328125 -24.9375 Z M 17.328125 -24.9375 "/></g></g></g><g fill="#0579b2" fill-opacity="1"><g transform="translate(106.758703, 181.457494)"><g><path d="M 36.625 -11.953125 C 36.625 -17.9375 33.390625 -21.6875 25.015625 -22.890625 C 30.65625 -24 33.5625 -26.890625 33.5625 -32.453125 C 33.5625 -39.796875 27.328125 -44.3125 16.484375 -44.3125 L 8.203125 -44.3125 C 7.515625 -44.3125 6.921875 -44.3125 6.3125 -44.234375 C 4.703125 -44.140625 3.328125 -43.890625 2.390625 -43.546875 C 1.796875 -43.296875 1.359375 -42.953125 1.109375 -42.609375 C 0.9375 -42.4375 0.859375 -42.265625 0.765625 -42.015625 L 0.765625 -41.421875 C 0.765625 -41.25 0.859375 -40.984375 0.859375 -40.8125 C 0.9375 -40.734375 0.9375 -40.5625 0.9375 -40.46875 C 1.359375 -39.109375 2.3125 -37.3125 2.640625 -35.4375 C 2.640625 -35.265625 2.734375 -35.015625 2.734375 -34.84375 L 2.734375 -9.90625 C 2.734375 -8.109375 1.96875 -6.484375 1.453125 -5.125 L 1.03125 -4.09375 C 1.03125 -3.921875 1.03125 -3.84375 0.9375 -3.75 C 0.859375 -3.5 0.765625 -3.15625 0.765625 -2.90625 L 0.765625 -2.640625 C 0.765625 -2.3125 0.859375 -1.96875 1.109375 -1.625 L 1.359375 -1.359375 C 1.703125 -1.03125 2.21875 -0.859375 2.8125 -0.59375 C 4.09375 -0.171875 5.984375 0 8.203125 0 L 16.484375 0 C 30.65625 0 36.625 -4.609375 36.625 -11.953125 Z M 24.59375 -12.546875 C 24.59375 -8.109375 22.71875 -5.203125 17.078125 -5.203125 C 14.765625 -5.203125 14.515625 -6.0625 14.515625 -9.90625 L 14.515625 -17.328125 C 14.609375 -19.046875 15.375 -19.984375 17.328125 -19.984375 C 22.546875 -19.984375 24.59375 -16.90625 24.59375 -12.546875 Z M 17.328125 -24.9375 C 15.375 -24.9375 14.609375 -25.359375 14.515625 -26.984375 L 14.515625 -34.40625 C 14.515625 -38.25 14.765625 -39.109375 17.078125 -39.109375 C 20.328125 -39.109375 21.515625 -36.46875 21.515625 -32.015625 C 21.515625 -27.75 19.890625 -24.9375 17.328125 -24.9375 Z M 17.328125 -24.9375 "/></g></g></g><g fill="#0579b2" fill-opacity="0.4"><g transform="translate(147.854368, 185.231797)"><g/></g></g><g fill="#0579b2" fill-opacity="0.4"><g transform="translate(160.832755, 185.231797)"><g/></g></g><g fill="#0579b2" fill-opacity="0.4"><g transform="translate(173.811141, 185.231797)"><g/></g></g><g fill="#0579b2" fill-opacity="1"><g transform="translate(144.080062, 181.457494)"><g/></g></g><g fill="#0579b2" fill-opacity="1"><g transform="translate(157.058448, 181.457494)"><g/></g></g><g fill="#0579b2" fill-opacity="1"><g transform="translate(170.036834, 181.457494)"><g/></g></g><g fill="#0579b2" fill-opacity="0.4"><g transform="translate(186.793835, 185.231797)"><g><path d="M 4.09375 -27.234375 L 4.09375 -8.375 C 4.09375 -5.46875 2.3125 -4.359375 2.3125 -2.640625 C 2.3125 -0.859375 4.953125 0 9.5625 0 L 10.328125 0 C 14.9375 0 17.59375 -0.859375 17.59375 -2.640625 C 17.59375 -4.359375 15.796875 -5.46875 15.796875 -8.375 L 15.796875 -29.28125 C 15.796875 -39.359375 16.484375 -41.671875 16.484375 -43.546875 C 16.484375 -44.921875 15.71875 -45.765625 14.265625 -45.765625 C 12.71875 -45.765625 10.765625 -45.09375 6.3125 -42.6875 C 1.875 -40.296875 0.34375 -39.359375 0.34375 -38.078125 C 0.34375 -36.96875 1.03125 -36.46875 2.140625 -35.609375 C 3.84375 -34.15625 4.09375 -32.796875 4.09375 -27.234375 Z M 4.09375 -27.234375 "/></g></g></g><g fill="#0579b2" fill-opacity="0.4"><g transform="translate(204.895351, 185.231797)"><g><path d="M 3.84375 -27.15625 L 3.84375 -8.375 C 3.84375 -5.46875 2.046875 -4.359375 2.046875 -2.640625 C 2.046875 -0.859375 4.78125 0 9.3125 0 L 10.15625 0 C 14.609375 0 17.25 -0.859375 17.25 -2.640625 C 17.25 -4.359375 15.625 -5.46875 15.625 -8.375 L 15.625 -14.9375 C 15.625 -20.75 15.96875 -25.28125 18.109375 -25.28125 C 19.640625 -25.28125 20.0625 -23.140625 20.328125 -17.671875 L 20.921875 -6.65625 C 21.171875 -2.21875 22.96875 0 28.34375 0 C 31.84375 0 34.671875 -1.109375 35.859375 -2.21875 C 36.625 -2.984375 36.46875 -4.09375 35.515625 -4.359375 C 33.90625 -4.78125 33.125 -5.8125 32.796875 -8.03125 C 32.453125 -10.421875 31.84375 -14.171875 31.34375 -19.296875 C 30.5625 -26.734375 29.546875 -30.65625 24.171875 -30.65625 C 20.828125 -30.65625 17.84375 -28.953125 15.625 -26.390625 L 15.625 -29.203125 C 15.625 -39.1875 16.3125 -41.578125 16.3125 -43.546875 C 16.3125 -45.09375 15.453125 -45.859375 14 -45.859375 C 12.375 -45.859375 10.421875 -45.09375 5.984375 -42.609375 C 1.53125 -40.21875 0.34375 -39.109375 0.34375 -37.90625 C 0.34375 -36.71875 1.109375 -36.03125 2.21875 -35.015625 C 3.671875 -33.8125 3.84375 -32.53125 3.84375 -27.15625 Z M 3.84375 -27.15625 "/></g></g></g><g fill="#0579b2" fill-opacity="0.4"><g transform="translate(240.500828, 185.231797)"><g><path d="M 33.8125 -2.140625 C 34.671875 -2.90625 34.5 -4.015625 33.390625 -4.265625 C 31.84375 -4.78125 31.34375 -5.203125 31 -7.265625 C 30.734375 -8.375 30.0625 -14.171875 29.28125 -19.46875 C 28.265625 -26.890625 24.078125 -30.65625 15.375 -30.65625 C 8.53125 -30.65625 3.84375 -28.171875 2.8125 -23.90625 C 2.21875 -21.09375 3.84375 -18.78125 6.921875 -18.703125 C 10.328125 -18.4375 12.203125 -20.40625 12.890625 -23.21875 C 13.484375 -25.609375 13.921875 -27.0625 14.9375 -27.0625 C 16.140625 -27.0625 16.5625 -25.28125 17.078125 -21.09375 C 17.078125 -19.640625 16.046875 -18.78125 9.984375 -16.5625 C 4.09375 -14.4375 0.765625 -11.4375 0.765625 -7.265625 C 0.765625 -2.8125 4.53125 -0.078125 10.25 -0.078125 C 14.4375 -0.078125 17.59375 -1.96875 19.546875 -4.875 C 20.15625 -2.046875 21.859375 0 26.5625 0 C 30.0625 0 32.796875 -1.203125 33.8125 -2.140625 Z M 18.109375 -13.75 C 18.953125 -7.515625 17.078125 -5.546875 15.375 -5.546875 C 13.578125 -5.546875 12.640625 -6.921875 12.640625 -9.484375 C 12.640625 -11.875 13.65625 -14.859375 16.484375 -16.390625 L 17.671875 -16.90625 Z M 18.109375 -13.75 "/></g></g></g><g fill="#0579b2" fill-opacity="1"><g transform="translate(183.019528, 181.457494)"><g><path d="M 4.09375 -27.234375 L 4.09375 -8.375 C 4.09375 -5.46875 2.3125 -4.359375 2.3125 -2.640625 C 2.3125 -0.859375 4.953125 0 9.5625 0 L 10.328125 0 C 14.9375 0 17.59375 -0.859375 17.59375 -2.640625 C 17.59375 -4.359375 15.796875 -5.46875 15.796875 -8.375 L 15.796875 -29.28125 C 15.796875 -39.359375 16.484375 -41.671875 16.484375 -43.546875 C 16.484375 -44.921875 15.71875 -45.765625 14.265625 -45.765625 C 12.71875 -45.765625 10.765625 -45.09375 6.3125 -42.6875 C 1.875 -40.296875 0.34375 -39.359375 0.34375 -38.078125 C 0.34375 -36.96875 1.03125 -36.46875 2.140625 -35.609375 C 3.84375 -34.15625 4.09375 -32.796875 4.09375 -27.234375 Z M 4.09375 -27.234375 "/></g></g></g><g fill="#0579b2" fill-opacity="1"><g transform="translate(201.121044, 181.457494)"><g><path d="M 3.84375 -27.15625 L 3.84375 -8.375 C 3.84375 -5.46875 2.046875 -4.359375 2.046875 -2.640625 C 2.046875 -0.859375 4.78125 0 9.3125 0 L 10.15625 0 C 14.609375 0 17.25 -0.859375 17.25 -2.640625 C 17.25 -4.359375 15.625 -5.46875 15.625 -8.375 L 15.625 -14.9375 C 15.625 -20.75 15.96875 -25.28125 18.109375 -25.28125 C 19.640625 -25.28125 20.0625 -23.140625 20.328125 -17.671875 L 20.921875 -6.65625 C 21.171875 -2.21875 22.96875 0 28.34375 0 C 31.84375 0 34.671875 -1.109375 35.859375 -2.21875 C 36.625 -2.984375 36.46875 -4.09375 35.515625 -4.359375 C 33.90625 -4.78125 33.125 -5.8125 32.796875 -8.03125 C 32.453125 -10.421875 31.84375 -14.171875 31.34375 -19.296875 C 30.5625 -26.734375 29.546875 -30.65625 24.171875 -30.65625 C 20.828125 -30.65625 17.84375 -28.953125 15.625 -26.390625 L 15.625 -29.203125 C 15.625 -39.1875 16.3125 -41.578125 16.3125 -43.546875 C 16.3125 -45.09375 15.453125 -45.859375 14 -45.859375 C 12.375 -45.859375 10.421875 -45.09375 5.984375 -42.609375 C 1.53125 -40.21875 0.34375 -39.109375 0.34375 -37.90625 C 0.34375 -36.71875 1.109375 -36.03125 2.21875 -35.015625 C 3.671875 -33.8125 3.84375 -32.53125 3.84375 -27.15625 Z M 3.84375 -27.15625 "/></g></g></g><g fill="#0579b2" fill-opacity="1"><g transform="translate(236.726521, 181.457494)"><g><path d="M 33.8125 -2.140625 C 34.671875 -2.90625 34.5 -4.015625 33.390625 -4.265625 C 31.84375 -4.78125 31.34375 -5.203125 31 -7.265625 C 30.734375 -8.375 30.0625 -14.171875 29.28125 -19.46875 C 28.265625 -26.890625 24.078125 -30.65625 15.375 -30.65625 C 8.53125 -30.65625 3.84375 -28.171875 2.8125 -23.90625 C 2.21875 -21.09375 3.84375 -18.78125 6.921875 -18.703125 C 10.328125 -18.4375 12.203125 -20.40625 12.890625 -23.21875 C 13.484375 -25.609375 13.921875 -27.0625 14.9375 -27.0625 C 16.140625 -27.0625 16.5625 -25.28125 17.078125 -21.09375 C 17.078125 -19.640625 16.046875 -18.78125 9.984375 -16.5625 C 4.09375 -14.4375 0.765625 -11.4375 0.765625 -7.265625 C 0.765625 -2.8125 4.53125 -0.078125 10.25 -0.078125 C 14.4375 -0.078125 17.59375 -1.96875 19.546875 -4.875 C 20.15625 -2.046875 21.859375 0 26.5625 0 C 30.0625 0 32.796875 -1.203125 33.8125 -2.140625 Z M 18.109375 -13.75 C 18.953125 -7.515625 17.078125 -5.546875 15.375 -5.546875 C 13.578125 -5.546875 12.640625 -6.921875 12.640625 -9.484375 C 12.640625 -11.875 13.65625 -14.859375 16.484375 -16.390625 L 17.671875 -16.90625 Z M 18.109375 -13.75 "/></g></g></g><path fill="#0579b2" d="M 155.398438 178.84375 C 146.53125 172.792969 144.636719 157.421875 157.382812 149.960938 C 161.230469 147.707031 168.132812 147.203125 173.015625 149.808594 C 177.746094 152.335938 181.476562 157.292969 182.070312 162.625 C 183.71875 177.453125 168.054688 187.480469 155.398438 178.84375 Z M 151.683594 173.441406 C 158.070312 183.105469 170.144531 182.867188 176.644531 176.386719 C 183.867188 169.042969 182.917969 156.164062 172.246094 150.757812 C 158.03125 143.554688 143.15625 160.515625 151.683594 173.441406 Z M 151.683594 173.441406 " fill-opacity="1" fill-rule="nonzero"/><path fill="#0579b2" d="M 169.527344 174.214844 C 170.503906 173.078125 171.480469 171.855469 172.824219 171.140625 C 175.730469 169.515625 176.472656 172.25 174.859375 173.601562 C 174.398438 174.496094 173.410156 175.019531 172.695312 175.703125 C 170.25 178.035156 167.125 176.496094 169.527344 174.214844 Z M 169.585938 175.972656 C 171.191406 176.289062 172.601562 174.757812 173.652344 173.894531 C 173.804688 173.25 174.578125 172.863281 174.835938 172.230469 C 175.652344 169.4375 169.113281 174.824219 169.585938 175.972656 Z M 169.585938 175.972656 " fill-opacity="1" fill-rule="nonzero"/><path fill="#0579b2" d="M 170.878906 170.964844 C 168.78125 170.242188 171.152344 167.480469 172.53125 167.421875 C 173.625 167.578125 173.347656 168.894531 172.828125 169.519531 C 173.097656 170.226562 171.492188 171.066406 170.878906 170.964844 Z M 170.894531 170.238281 C 171.761719 170.15625 172.4375 169.085938 172.476562 168.289062 C 171.703125 168.59375 170.941406 169.382812 170.894531 170.238281 Z M 170.894531 170.238281 " fill-opacity="1" fill-rule="nonzero"/><g fill="#0579b2" fill-opacity="0.4"><g transform="translate(152.924515, 220.142721)"><g><path d="M 7.84375 -29.9375 L 5.59375 -29.9375 C 2.53125 -29.9375 0.515625 -29.359375 0.515625 -28.15625 C 0.515625 -27 1.84375 -25.203125 1.84375 -23.25 L 1.84375 -6.6875 C 1.84375 -4.734375 0.515625 -2.9375 0.515625 -1.78125 C 0.515625 -0.578125 2.53125 0 5.59375 0 L 8.421875 0 C 18.234375 0 25.265625 -3.75 25.265625 -14.9375 C 25.265625 -26.1875 18.0625 -29.9375 7.84375 -29.9375 Z M 11.9375 -3.515625 C 10.328125 -3.34375 9.8125 -3.6875 9.8125 -5.65625 L 9.8125 -24.28125 C 9.8125 -26.359375 9.984375 -26.703125 11.421875 -26.421875 C 14.359375 -25.90625 17.140625 -21.6875 17.140625 -14.765625 C 17.140625 -7.671875 14.828125 -3.921875 11.9375 -3.515625 Z M 11.9375 -3.515625 "/></g></g></g><g fill="#0579b2" fill-opacity="0.4"><g transform="translate(178.420128, 220.142721)"><g><path d="M 3.109375 -8.484375 L 3.109375 -5.65625 C 3.109375 -3.6875 1.90625 -2.9375 1.90625 -1.78125 C 1.90625 -0.578125 3.75 0 6.8125 0 L 7.390625 0 C 10.390625 0 12.234375 -0.578125 12.234375 -1.78125 C 12.234375 -2.9375 11.078125 -3.6875 11.078125 -5.65625 L 11.078125 -9.984375 C 11.078125 -15.578125 11.3125 -17.59375 11.3125 -18.921875 C 11.3125 -20.1875 10.84375 -20.703125 10.15625 -20.703125 C 9.34375 -20.703125 8.359375 -20.421875 5.359375 -19.03125 C 1.734375 -17.53125 0.75 -16.953125 0.75 -16.03125 C 0.75 -15.578125 1.03125 -15.234375 1.78125 -14.484375 C 3 -13.15625 3.109375 -12.984375 3.109375 -8.484375 Z M 11.890625 -26.703125 C 11.765625 -29.3125 9.40625 -31.265625 6.46875 -31.15625 C 3.640625 -31.03125 1.328125 -28.84375 1.4375 -26.3125 C 1.5625 -23.765625 3.921875 -21.75 6.8125 -21.859375 C 9.6875 -21.984375 11.9375 -24.109375 11.890625 -26.703125 Z M 11.890625 -26.703125 "/></g></g></g><g fill="#0579b2" fill-opacity="0.4"><g transform="translate(191.110168, 220.142721)"><g><path d="M 10.09375 3.921875 C 8.765625 3.921875 7.90625 3.109375 7.609375 1.265625 C 7.4375 -1.03125 6 -1.609375 3.984375 -1.609375 C 1.4375 -1.609375 0 0.578125 1.03125 2.765625 C 2.140625 5.140625 5.59375 6.40625 9.40625 6.40625 C 14.65625 6.40625 19.4375 4.5625 19.4375 0.40625 C 19.4375 -2.015625 17.53125 -3.28125 15.171875 -3.859375 C 17.65625 -5.3125 19.03125 -8.015625 19.03125 -11.703125 C 19.03125 -14.25 18.234375 -16.328125 16.90625 -17.890625 L 17.1875 -18 C 17.9375 -17.703125 18.234375 -17.59375 18.859375 -17.59375 C 20.421875 -17.59375 21.515625 -18.34375 21.515625 -19.4375 C 21.515625 -20.53125 20.59375 -21.234375 19.5 -21.234375 C 18 -21.234375 17.25 -19.4375 16.15625 -19.4375 C 15.234375 -19.4375 14.015625 -20.078125 12.6875 -20.421875 C 11.765625 -20.65625 10.84375 -20.765625 9.8125 -20.765625 C 4.390625 -20.765625 0.515625 -17.421875 0.515625 -11.703125 C 0.515625 -6.34375 4.328125 -3.171875 9.28125 -2.765625 C 11.421875 -2.359375 12.28125 -0.984375 12.28125 0.8125 C 12.28125 2.71875 11.484375 3.921875 10.09375 3.921875 Z M 11.3125 -4.96875 C 10.09375 -4.84375 8.9375 -7.09375 8.140625 -11.078125 C 7.609375 -12.921875 6.984375 -18.234375 8.3125 -18.40625 C 9.34375 -18.578125 10.609375 -16.328125 11.484375 -12.28125 C 12.234375 -8.359375 12.40625 -5.140625 11.3125 -4.96875 Z M 11.3125 -4.96875 "/></g></g></g><g fill="#0579b2" fill-opacity="0.4"><g transform="translate(210.95288, 220.142721)"><g><path d="M 3.109375 -8.484375 L 3.109375 -5.65625 C 3.109375 -3.6875 1.90625 -2.9375 1.90625 -1.78125 C 1.90625 -0.578125 3.75 0 6.8125 0 L 7.390625 0 C 10.390625 0 12.234375 -0.578125 12.234375 -1.78125 C 12.234375 -2.9375 11.078125 -3.6875 11.078125 -5.65625 L 11.078125 -9.984375 C 11.078125 -15.578125 11.3125 -17.59375 11.3125 -18.921875 C 11.3125 -20.1875 10.84375 -20.703125 10.15625 -20.703125 C 9.34375 -20.703125 8.359375 -20.421875 5.359375 -19.03125 C 1.734375 -17.53125 0.75 -16.953125 0.75 -16.03125 C 0.75 -15.578125 1.03125 -15.234375 1.78125 -14.484375 C 3 -13.15625 3.109375 -12.984375 3.109375 -8.484375 Z M 11.890625 -26.703125 C 11.765625 -29.3125 9.40625 -31.265625 6.46875 -31.15625 C 3.640625 -31.03125 1.328125 -28.84375 1.4375 -26.3125 C 1.5625 -23.765625 3.921875 -21.75 6.8125 -21.859375 C 9.6875 -21.984375 11.9375 -24.109375 11.890625 -26.703125 Z M 11.890625 -26.703125 "/></g></g></g><g fill="#0579b2" fill-opacity="0.4"><g transform="translate(223.931348, 220.142721)"><g><path d="M 13.609375 -18.453125 C 13.609375 -19.265625 12.921875 -19.90625 12.171875 -19.90625 L 9.859375 -19.90625 C 9.921875 -21.171875 10.09375 -22.328125 10.09375 -24.234375 C 10.09375 -25.265625 9.6875 -25.953125 8.828125 -25.953125 C 7.953125 -25.953125 7.21875 -25.265625 6.75 -23.9375 C 5.828125 -21.34375 4.5 -19.90625 1.390625 -19.90625 L 1.328125 -19.90625 C 0.578125 -19.84375 0 -19.265625 0 -18.453125 C 0 -17.703125 0.640625 -17.078125 1.390625 -17.078125 L 1.90625 -17.078125 L 1.90625 -7.953125 C 1.90625 -2.421875 3.859375 0.28125 7.5625 0.28125 C 11.59375 0.28125 13.203125 -2.828125 13.90625 -5.59375 C 14.1875 -6.6875 13.5 -6.984375 12.859375 -6.28125 C 12.515625 -5.890625 12.28125 -5.359375 11.359375 -5.359375 C 10.15625 -5.359375 9.859375 -6.28125 9.859375 -9.75 L 9.859375 -17.078125 L 12.171875 -17.078125 C 12.921875 -17.078125 13.609375 -17.703125 13.609375 -18.453125 Z M 13.609375 -18.453125 "/></g></g></g><g fill="#0579b2" fill-opacity="0.4"><g transform="translate(238.121169, 220.142721)"><g><path d="M 22.84375 -1.4375 C 23.421875 -1.96875 23.3125 -2.71875 22.5625 -2.890625 C 21.515625 -3.234375 21.171875 -3.515625 20.9375 -4.90625 C 20.765625 -5.65625 20.3125 -9.578125 19.78125 -13.15625 C 19.09375 -18.171875 16.265625 -20.703125 10.390625 -20.703125 C 5.765625 -20.703125 2.59375 -19.03125 1.90625 -16.15625 C 1.5 -14.25 2.59375 -12.6875 4.671875 -12.640625 C 6.984375 -12.453125 8.25 -13.78125 8.703125 -15.6875 C 9.109375 -17.3125 9.40625 -18.28125 10.09375 -18.28125 C 10.90625 -18.28125 11.1875 -17.078125 11.53125 -14.25 C 11.53125 -13.265625 10.84375 -12.6875 6.75 -11.1875 C 2.765625 -9.75 0.515625 -7.734375 0.515625 -4.90625 C 0.515625 -1.90625 3.0625 -0.0625 6.921875 -0.0625 C 9.75 -0.0625 11.890625 -1.328125 13.203125 -3.28125 C 13.609375 -1.390625 14.765625 0 17.9375 0 C 20.3125 0 22.15625 -0.8125 22.84375 -1.4375 Z M 12.234375 -9.28125 C 12.8125 -5.078125 11.53125 -3.75 10.390625 -3.75 C 9.171875 -3.75 8.53125 -4.671875 8.53125 -6.40625 C 8.53125 -8.015625 9.234375 -10.03125 11.140625 -11.078125 L 11.9375 -11.421875 Z M 12.234375 -9.28125 "/></g></g></g><g fill="#0579b2" fill-opacity="0.4"><g transform="translate(260.444194, 220.142721)"><g><path d="M 2.765625 -18.40625 L 2.765625 -5.65625 C 2.765625 -3.6875 1.5625 -2.9375 1.5625 -1.78125 C 1.5625 -0.578125 3.34375 0 6.46875 0 L 6.984375 0 C 10.09375 0 11.890625 -0.578125 11.890625 -1.78125 C 11.890625 -2.9375 10.671875 -3.6875 10.671875 -5.65625 L 10.671875 -19.78125 C 10.671875 -26.59375 11.140625 -28.15625 11.140625 -29.421875 C 11.140625 -30.34375 10.609375 -30.921875 9.640625 -30.921875 C 8.59375 -30.921875 7.265625 -30.453125 4.265625 -28.84375 C 1.265625 -27.234375 0.234375 -26.59375 0.234375 -25.734375 C 0.234375 -24.984375 0.6875 -24.625 1.4375 -24.0625 C 2.59375 -23.078125 2.765625 -22.15625 2.765625 -18.40625 Z M 2.765625 -18.40625 "/></g></g></g><g fill="#0579b2" fill-opacity="1"><g transform="translate(150.374751, 217.592957)"><g><path d="M 7.84375 -29.9375 L 5.59375 -29.9375 C 2.53125 -29.9375 0.515625 -29.359375 0.515625 -28.15625 C 0.515625 -27 1.84375 -25.203125 1.84375 -23.25 L 1.84375 -6.6875 C 1.84375 -4.734375 0.515625 -2.9375 0.515625 -1.78125 C 0.515625 -0.578125 2.53125 0 5.59375 0 L 8.421875 0 C 18.234375 0 25.265625 -3.75 25.265625 -14.9375 C 25.265625 -26.1875 18.0625 -29.9375 7.84375 -29.9375 Z M 11.9375 -3.515625 C 10.328125 -3.34375 9.8125 -3.6875 9.8125 -5.65625 L 9.8125 -24.28125 C 9.8125 -26.359375 9.984375 -26.703125 11.421875 -26.421875 C 14.359375 -25.90625 17.140625 -21.6875 17.140625 -14.765625 C 17.140625 -7.671875 14.828125 -3.921875 11.9375 -3.515625 Z M 11.9375 -3.515625 "/></g></g></g><g fill="#0579b2" fill-opacity="1"><g transform="translate(175.870363, 217.592957)"><g><path d="M 3.109375 -8.484375 L 3.109375 -5.65625 C 3.109375 -3.6875 1.90625 -2.9375 1.90625 -1.78125 C 1.90625 -0.578125 3.75 0 6.8125 0 L 7.390625 0 C 10.390625 0 12.234375 -0.578125 12.234375 -1.78125 C 12.234375 -2.9375 11.078125 -3.6875 11.078125 -5.65625 L 11.078125 -9.984375 C 11.078125 -15.578125 11.3125 -17.59375 11.3125 -18.921875 C 11.3125 -20.1875 10.84375 -20.703125 10.15625 -20.703125 C 9.34375 -20.703125 8.359375 -20.421875 5.359375 -19.03125 C 1.734375 -17.53125 0.75 -16.953125 0.75 -16.03125 C 0.75 -15.578125 1.03125 -15.234375 1.78125 -14.484375 C 3 -13.15625 3.109375 -12.984375 3.109375 -8.484375 Z M 11.890625 -26.703125 C 11.765625 -29.3125 9.40625 -31.265625 6.46875 -31.15625 C 3.640625 -31.03125 1.328125 -28.84375 1.4375 -26.3125 C 1.5625 -23.765625 3.921875 -21.75 6.8125 -21.859375 C 9.6875 -21.984375 11.9375 -24.109375 11.890625 -26.703125 Z M 11.890625 -26.703125 "/></g></g></g><g fill="#0579b2" fill-opacity="1"><g transform="translate(188.560404, 217.592957)"><g><path d="M 10.09375 3.921875 C 8.765625 3.921875 7.90625 3.109375 7.609375 1.265625 C 7.4375 -1.03125 6 -1.609375 3.984375 -1.609375 C 1.4375 -1.609375 0 0.578125 1.03125 2.765625 C 2.140625 5.140625 5.59375 6.40625 9.40625 6.40625 C 14.65625 6.40625 19.4375 4.5625 19.4375 0.40625 C 19.4375 -2.015625 17.53125 -3.28125 15.171875 -3.859375 C 17.65625 -5.3125 19.03125 -8.015625 19.03125 -11.703125 C 19.03125 -14.25 18.234375 -16.328125 16.90625 -17.890625 L 17.1875 -18 C 17.9375 -17.703125 18.234375 -17.59375 18.859375 -17.59375 C 20.421875 -17.59375 21.515625 -18.34375 21.515625 -19.4375 C 21.515625 -20.53125 20.59375 -21.234375 19.5 -21.234375 C 18 -21.234375 17.25 -19.4375 16.15625 -19.4375 C 15.234375 -19.4375 14.015625 -20.078125 12.6875 -20.421875 C 11.765625 -20.65625 10.84375 -20.765625 9.8125 -20.765625 C 4.390625 -20.765625 0.515625 -17.421875 0.515625 -11.703125 C 0.515625 -6.34375 4.328125 -3.171875 9.28125 -2.765625 C 11.421875 -2.359375 12.28125 -0.984375 12.28125 0.8125 C 12.28125 2.71875 11.484375 3.921875 10.09375 3.921875 Z M 11.3125 -4.96875 C 10.09375 -4.84375 8.9375 -7.09375 8.140625 -11.078125 C 7.609375 -12.921875 6.984375 -18.234375 8.3125 -18.40625 C 9.34375 -18.578125 10.609375 -16.328125 11.484375 -12.28125 C 12.234375 -8.359375 12.40625 -5.140625 11.3125 -4.96875 Z M 11.3125 -4.96875 "/></g></g></g><g fill="#0579b2" fill-opacity="1"><g transform="translate(208.403116, 217.592957)"><g><path d="M 3.109375 -8.484375 L 3.109375 -5.65625 C 3.109375 -3.6875 1.90625 -2.9375 1.90625 -1.78125 C 1.90625 -0.578125 3.75 0 6.8125 0 L 7.390625 0 C 10.390625 0 12.234375 -0.578125 12.234375 -1.78125 C 12.234375 -2.9375 11.078125 -3.6875 11.078125 -5.65625 L 11.078125 -9.984375 C 11.078125 -15.578125 11.3125 -17.59375 11.3125 -18.921875 C 11.3125 -20.1875 10.84375 -20.703125 10.15625 -20.703125 C 9.34375 -20.703125 8.359375 -20.421875 5.359375 -19.03125 C 1.734375 -17.53125 0.75 -16.953125 0.75 -16.03125 C 0.75 -15.578125 1.03125 -15.234375 1.78125 -14.484375 C 3 -13.15625 3.109375 -12.984375 3.109375 -8.484375 Z M 11.890625 -26.703125 C 11.765625 -29.3125 9.40625 -31.265625 6.46875 -31.15625 C 3.640625 -31.03125 1.328125 -28.84375 1.4375 -26.3125 C 1.5625 -23.765625 3.921875 -21.75 6.8125 -21.859375 C 9.6875 -21.984375 11.9375 -24.109375 11.890625 -26.703125 Z M 11.890625 -26.703125 "/></g></g></g><g fill="#0579b2" fill-opacity="1"><g transform="translate(221.381583, 217.592957)"><g><path d="M 13.609375 -18.453125 C 13.609375 -19.265625 12.921875 -19.90625 12.171875 -19.90625 L 9.859375 -19.90625 C 9.921875 -21.171875 10.09375 -22.328125 10.09375 -24.234375 C 10.09375 -25.265625 9.6875 -25.953125 8.828125 -25.953125 C 7.953125 -25.953125 7.21875 -25.265625 6.75 -23.9375 C 5.828125 -21.34375 4.5 -19.90625 1.390625 -19.90625 L 1.328125 -19.90625 C 0.578125 -19.84375 0 -19.265625 0 -18.453125 C 0 -17.703125 0.640625 -17.078125 1.390625 -17.078125 L 1.90625 -17.078125 L 1.90625 -7.953125 C 1.90625 -2.421875 3.859375 0.28125 7.5625 0.28125 C 11.59375 0.28125 13.203125 -2.828125 13.90625 -5.59375 C 14.1875 -6.6875 13.5 -6.984375 12.859375 -6.28125 C 12.515625 -5.890625 12.28125 -5.359375 11.359375 -5.359375 C 10.15625 -5.359375 9.859375 -6.28125 9.859375 -9.75 L 9.859375 -17.078125 L 12.171875 -17.078125 C 12.921875 -17.078125 13.609375 -17.703125 13.609375 -18.453125 Z M 13.609375 -18.453125 "/></g></g></g><g fill="#0579b2" fill-opacity="1"><g transform="translate(235.571404, 217.592957)"><g><path d="M 22.84375 -1.4375 C 23.421875 -1.96875 23.3125 -2.71875 22.5625 -2.890625 C 21.515625 -3.234375 21.171875 -3.515625 20.9375 -4.90625 C 20.765625 -5.65625 20.3125 -9.578125 19.78125 -13.15625 C 19.09375 -18.171875 16.265625 -20.703125 10.390625 -20.703125 C 5.765625 -20.703125 2.59375 -19.03125 1.90625 -16.15625 C 1.5 -14.25 2.59375 -12.6875 4.671875 -12.640625 C 6.984375 -12.453125 8.25 -13.78125 8.703125 -15.6875 C 9.109375 -17.3125 9.40625 -18.28125 10.09375 -18.28125 C 10.90625 -18.28125 11.1875 -17.078125 11.53125 -14.25 C 11.53125 -13.265625 10.84375 -12.6875 6.75 -11.1875 C 2.765625 -9.75 0.515625 -7.734375 0.515625 -4.90625 C 0.515625 -1.90625 3.0625 -0.0625 6.921875 -0.0625 C 9.75 -0.0625 11.890625 -1.328125 13.203125 -3.28125 C 13.609375 -1.390625 14.765625 0 17.9375 0 C 20.3125 0 22.15625 -0.8125 22.84375 -1.4375 Z M 12.234375 -9.28125 C 12.8125 -5.078125 11.53125 -3.75 10.390625 -3.75 C 9.171875 -3.75 8.53125 -4.671875 8.53125 -6.40625 C 8.53125 -8.015625 9.234375 -10.03125 11.140625 -11.078125 L 11.9375 -11.421875 Z M 12.234375 -9.28125 "/></g></g></g><g fill="#0579b2" fill-opacity="1"><g transform="translate(257.89443, 217.592957)"><g><path d="M 2.765625 -18.40625 L 2.765625 -5.65625 C 2.765625 -3.6875 1.5625 -2.9375 1.5625 -1.78125 C 1.5625 -0.578125 3.34375 0 6.46875 0 L 6.984375 0 C 10.09375 0 11.890625 -0.578125 11.890625 -1.78125 C 11.890625 -2.9375 10.671875 -3.6875 10.671875 -5.65625 L 10.671875 -19.78125 C 10.671875 -26.59375 11.140625 -28.15625 11.140625 -29.421875 C 11.140625 -30.34375 10.609375 -30.921875 9.640625 -30.921875 C 8.59375 -30.921875 7.265625 -30.453125 4.265625 -28.84375 C 1.265625 -27.234375 0.234375 -26.59375 0.234375 -25.734375 C 0.234375 -24.984375 0.6875 -24.625 1.4375 -24.0625 C 2.59375 -23.078125 2.765625 -22.15625 2.765625 -18.40625 Z M 2.765625 -18.40625 "/></g></g></g><g clip-path="url(#c4a991b2f7)"><g clip-path="url(#17015b4cd4)"><path fill="#0579b2" d="M 122.246094 191.882812 L 141.355469 191.882812 L 141.355469 210.992188 L 122.246094 210.992188 Z M 122.246094 191.882812 " fill-opacity="1" fill-rule="nonzero"/></g></g><g clip-path="url(#185e81aa9a)"><g clip-path="url(#b95ef1bb11)"><path fill="#0579b2" d="M 111.339844 205.539062 L 122.246094 205.539062 L 122.246094 216.449219 L 111.339844 216.449219 Z M 111.339844 205.539062 " fill-opacity="1" fill-rule="nonzero"/></g></g><g mask="url(#58eb1c54ef)"><g transform="matrix(1, 0, 0, 1, 110, 137)"><g clip-path="url(#68b25b6529)"><g clip-path="url(#d116a1251c)"><path fill="#ffffff" d="M 0.589844 42.832031 L 0.589844 41.332031 L 2.089844 41.332031 L 2.089844 42.832031 M 0.589844 39.832031 L 0.589844 38.332031 L 2.089844 38.332031 L 2.089844 39.832031 M 0.589844 36.832031 L 0.589844 35.332031 L 2.089844 35.332031 L 2.089844 36.832031 M 0.589844 33.832031 L 0.589844 32.332031 L 2.089844 32.332031 L 2.089844 33.832031 M 0.589844 30.832031 L 0.589844 29.332031 L 2.089844 29.332031 L 2.089844 30.832031 M 0.589844 27.832031 L 0.589844 26.332031 L 2.089844 26.332031 L 2.089844 27.832031 M 0.589844 24.832031 L 0.589844 23.332031 L 2.089844 23.332031 L 2.089844 24.832031 M 0.589844 21.832031 L 0.589844 20.332031 L 2.089844 20.332031 L 2.089844 21.832031 M 0.589844 18.832031 L 0.589844 17.332031 L 2.089844 17.332031 L 2.089844 18.832031 M 0.589844 15.832031 L 0.589844 14.332031 L 2.089844 14.332031 L 2.089844 15.832031 M 0.589844 12.832031 L 0.589844 11.332031 L 2.089844 11.332031 L 2.089844 12.832031 M 0.589844 9.832031 L 0.589844 8.332031 L 2.089844 8.332031 L 2.089844 9.832031 M 0.589844 6.832031 L 0.589844 5.332031 L 2.089844 5.332031 L 2.089844 6.832031 M 0.589844 3.832031 L 0.589844 2.332031 L 2.089844 2.332031 L 2.089844 3.832031 " fill-opacity="1" fill-rule="nonzero"/></g></g></g></g><g mask="url(#6dc8a9836e)"><g transform="matrix(1, 0, 0, 1, 152, 188)"><g clip-path="url(#fe9cc749aa)"><g clip-path="url(#424b7adbd1)"><path fill="#ffffff" d="M 0.765625 28.445312 L 0.765625 26.945312 L 2.265625 26.945312 L 2.265625 28.445312 M 0.765625 25.445312 L 0.765625 23.945312 L 2.265625 23.945312 L 2.265625 25.445312 M 0.765625 22.445312 L 0.765625 20.945312 L 2.265625 20.945312 L 2.265625 22.445312 M 0.765625 19.445312 L 0.765625 17.945312 L 2.265625 17.945312 L 2.265625 19.445312 M 0.765625 16.445312 L 0.765625 14.945312 L 2.265625 14.945312 L 2.265625 16.445312 M 0.765625 13.445312 L 0.765625 11.945312 L 2.265625 11.945312 L 2.265625 13.445312 M 0.765625 10.445312 L 0.765625 8.945312 L 2.265625 8.945312 L 2.265625 10.445312 M 0.765625 7.445312 L 0.765625 5.945312 L 2.265625 5.945312 L 2.265625 7.445312 M 0.765625 4.445312 L 0.765625 2.945312 L 2.265625 2.945312 L 2.265625 4.445312 " fill-opacity="1" fill-rule="nonzero"/></g></g></g></g></svg>